<mxfile host="app.diagrams.net" agent="Mozilla/5.0 (Windows NT 10.0; Win64; x64) AppleWebKit/537.36 (KHTML, like Gecko) Chrome/131.0.0.0 Safari/537.36" version="26.0.1">
  <diagram name="第 1 页" id="wWRNZT5r4CgGh0tnN0G4">
    <mxGraphModel dx="4871" dy="3581" grid="1" gridSize="10" guides="1" tooltips="1" connect="1" arrows="1" fold="1" page="1" pageScale="1" pageWidth="827" pageHeight="1169" math="0" shadow="0">
      <root>
        <mxCell id="0" />
        <mxCell id="1" parent="0" />
        <mxCell id="QlcaSgnAr_pf4Fz0l7gZ-2" value="" style="endArrow=none;dashed=1;html=1;rounded=0;" edge="1" parent="1">
          <mxGeometry width="50" height="50" relative="1" as="geometry">
            <mxPoint x="-1630" y="-2290" as="sourcePoint" />
            <mxPoint x="480" y="-2280" as="targetPoint" />
          </mxGeometry>
        </mxCell>
        <mxCell id="QlcaSgnAr_pf4Fz0l7gZ-3" value="" style="rounded=0;whiteSpace=wrap;html=1;" vertex="1" parent="1">
          <mxGeometry x="-1550" y="-2260" width="1970" height="140" as="geometry" />
        </mxCell>
        <mxCell id="QlcaSgnAr_pf4Fz0l7gZ-4" value="" style="rounded=0;whiteSpace=wrap;html=1;fillColor=#0050ef;strokeColor=#001DBC;fontColor=#ffffff;" vertex="1" parent="1">
          <mxGeometry x="100" y="-2260" width="330" height="140" as="geometry" />
        </mxCell>
        <mxCell id="QlcaSgnAr_pf4Fz0l7gZ-6" value="&lt;font style=&quot;font-size: 60px;&quot;&gt;開源用戶&lt;/font&gt;" style="text;html=1;align=center;verticalAlign=middle;whiteSpace=wrap;rounded=0;" vertex="1" parent="1">
          <mxGeometry x="135" y="-2255" width="260" height="130" as="geometry" />
        </mxCell>
        <mxCell id="QlcaSgnAr_pf4Fz0l7gZ-7" value="&lt;font style=&quot;font-size: 30px;&quot;&gt;阿里巴巴集團業務&lt;/font&gt;" style="text;html=1;align=center;verticalAlign=middle;whiteSpace=wrap;rounded=0;" vertex="1" parent="1">
          <mxGeometry x="-1540" y="-2255" width="280" height="50" as="geometry" />
        </mxCell>
        <mxCell id="QlcaSgnAr_pf4Fz0l7gZ-8" value="" style="rounded=0;whiteSpace=wrap;html=1;fillColor=#dae8fc;strokeColor=#6c8ebf;" vertex="1" parent="1">
          <mxGeometry x="-1530" y="-2200" width="170" height="60" as="geometry" />
        </mxCell>
        <mxCell id="QlcaSgnAr_pf4Fz0l7gZ-9" value="" style="rounded=0;whiteSpace=wrap;html=1;fillColor=#dae8fc;strokeColor=#6c8ebf;" vertex="1" parent="1">
          <mxGeometry x="-1330" y="-2200" width="130" height="60" as="geometry" />
        </mxCell>
        <mxCell id="QlcaSgnAr_pf4Fz0l7gZ-10" value="" style="rounded=0;whiteSpace=wrap;html=1;fillColor=#dae8fc;strokeColor=#6c8ebf;" vertex="1" parent="1">
          <mxGeometry x="-1160" y="-2200" width="130" height="60" as="geometry" />
        </mxCell>
        <mxCell id="QlcaSgnAr_pf4Fz0l7gZ-11" value="" style="rounded=0;whiteSpace=wrap;html=1;fillColor=#dae8fc;strokeColor=#6c8ebf;" vertex="1" parent="1">
          <mxGeometry x="-1000" y="-2200" width="150" height="60" as="geometry" />
        </mxCell>
        <mxCell id="QlcaSgnAr_pf4Fz0l7gZ-12" value="&lt;span style=&quot;font-size: 20px;&quot;&gt;Ali Express&lt;/span&gt;" style="text;html=1;align=center;verticalAlign=middle;whiteSpace=wrap;rounded=0;" vertex="1" parent="1">
          <mxGeometry x="-1530" y="-2185" width="160" height="30" as="geometry" />
        </mxCell>
        <mxCell id="QlcaSgnAr_pf4Fz0l7gZ-14" value="&lt;font style=&quot;font-size: 20px;&quot;&gt;1688&lt;/font&gt;" style="text;html=1;align=center;verticalAlign=middle;whiteSpace=wrap;rounded=0;" vertex="1" parent="1">
          <mxGeometry x="-1300" y="-2185" width="60" height="30" as="geometry" />
        </mxCell>
        <mxCell id="QlcaSgnAr_pf4Fz0l7gZ-15" value="&lt;font style=&quot;font-size: 30px;&quot;&gt;淘寶&lt;/font&gt;" style="text;html=1;align=center;verticalAlign=middle;whiteSpace=wrap;rounded=0;" vertex="1" parent="1">
          <mxGeometry x="-1137.5" y="-2185" width="85" height="30" as="geometry" />
        </mxCell>
        <mxCell id="QlcaSgnAr_pf4Fz0l7gZ-16" value="&lt;font style=&quot;font-size: 30px;&quot;&gt;天貓&lt;/font&gt;" style="text;html=1;align=center;verticalAlign=middle;whiteSpace=wrap;rounded=0;" vertex="1" parent="1">
          <mxGeometry x="-967.5" y="-2185" width="85" height="30" as="geometry" />
        </mxCell>
        <mxCell id="QlcaSgnAr_pf4Fz0l7gZ-18" value="" style="rounded=0;whiteSpace=wrap;html=1;fillColor=#dae8fc;strokeColor=#6c8ebf;" vertex="1" parent="1">
          <mxGeometry x="-827" y="-2200" width="150" height="60" as="geometry" />
        </mxCell>
        <mxCell id="QlcaSgnAr_pf4Fz0l7gZ-19" value="&lt;span style=&quot;font-size: 30px;&quot;&gt;聚划算&lt;/span&gt;" style="text;html=1;align=center;verticalAlign=middle;whiteSpace=wrap;rounded=0;" vertex="1" parent="1">
          <mxGeometry x="-822" y="-2185" width="140" height="30" as="geometry" />
        </mxCell>
        <mxCell id="QlcaSgnAr_pf4Fz0l7gZ-21" value="" style="rounded=0;whiteSpace=wrap;html=1;fillColor=#dae8fc;strokeColor=#6c8ebf;" vertex="1" parent="1">
          <mxGeometry x="-650" y="-2200" width="150" height="60" as="geometry" />
        </mxCell>
        <mxCell id="QlcaSgnAr_pf4Fz0l7gZ-22" value="" style="rounded=0;whiteSpace=wrap;html=1;fillColor=#dae8fc;strokeColor=#6c8ebf;" vertex="1" parent="1">
          <mxGeometry x="-470" y="-2200" width="150" height="60" as="geometry" />
        </mxCell>
        <mxCell id="QlcaSgnAr_pf4Fz0l7gZ-23" value="" style="rounded=0;whiteSpace=wrap;html=1;fillColor=#dae8fc;strokeColor=#6c8ebf;" vertex="1" parent="1">
          <mxGeometry x="-290" y="-2200" width="150" height="60" as="geometry" />
        </mxCell>
        <mxCell id="QlcaSgnAr_pf4Fz0l7gZ-24" value="" style="rounded=0;whiteSpace=wrap;html=1;fillColor=#dae8fc;strokeColor=#6c8ebf;" vertex="1" parent="1">
          <mxGeometry x="-80" y="-2200" width="150" height="60" as="geometry" />
        </mxCell>
        <mxCell id="QlcaSgnAr_pf4Fz0l7gZ-25" value="&lt;span style=&quot;font-size: 30px;&quot;&gt;去啊&lt;/span&gt;" style="text;html=1;align=center;verticalAlign=middle;whiteSpace=wrap;rounded=0;" vertex="1" parent="1">
          <mxGeometry x="-625" y="-2185" width="100" height="30" as="geometry" />
        </mxCell>
        <mxCell id="QlcaSgnAr_pf4Fz0l7gZ-29" value="&lt;span style=&quot;font-size: 30px;&quot;&gt;口碑&lt;/span&gt;" style="text;html=1;align=center;verticalAlign=middle;whiteSpace=wrap;rounded=0;" vertex="1" parent="1">
          <mxGeometry x="-437.5" y="-2185" width="85" height="30" as="geometry" />
        </mxCell>
        <mxCell id="QlcaSgnAr_pf4Fz0l7gZ-30" value="&lt;span style=&quot;font-size: 30px;&quot;&gt;阿里媽媽&lt;/span&gt;" style="text;html=1;align=center;verticalAlign=middle;whiteSpace=wrap;rounded=0;" vertex="1" parent="1">
          <mxGeometry x="-280" y="-2185" width="130" height="30" as="geometry" />
        </mxCell>
        <mxCell id="QlcaSgnAr_pf4Fz0l7gZ-31" value="&lt;span style=&quot;font-size: 30px;&quot;&gt;菜鳥&lt;/span&gt;" style="text;html=1;align=center;verticalAlign=middle;whiteSpace=wrap;rounded=0;" vertex="1" parent="1">
          <mxGeometry x="-47.5" y="-2185" width="85" height="30" as="geometry" />
        </mxCell>
        <mxCell id="QlcaSgnAr_pf4Fz0l7gZ-36" value="&lt;span style=&quot;font-size: 50px;&quot;&gt;業務前台&lt;/span&gt;" style="text;html=1;align=center;verticalAlign=middle;whiteSpace=wrap;rounded=0;" vertex="1" parent="1">
          <mxGeometry x="-1660" y="-2180" width="110" height="40" as="geometry" />
        </mxCell>
        <mxCell id="QlcaSgnAr_pf4Fz0l7gZ-39" value="" style="endArrow=classic;html=1;rounded=0;strokeWidth=10;" edge="1" parent="1">
          <mxGeometry width="50" height="50" relative="1" as="geometry">
            <mxPoint x="-1610" y="-2220" as="sourcePoint" />
            <mxPoint x="-1610" y="-2290" as="targetPoint" />
          </mxGeometry>
        </mxCell>
        <mxCell id="QlcaSgnAr_pf4Fz0l7gZ-40" value="" style="endArrow=classic;html=1;rounded=0;strokeWidth=10;" edge="1" parent="1">
          <mxGeometry width="50" height="50" relative="1" as="geometry">
            <mxPoint x="-1605" y="-2110" as="sourcePoint" />
            <mxPoint x="-1605" y="-2040" as="targetPoint" />
            <Array as="points" />
          </mxGeometry>
        </mxCell>
        <mxCell id="QlcaSgnAr_pf4Fz0l7gZ-42" value="" style="endArrow=none;dashed=1;html=1;rounded=0;" edge="1" parent="1">
          <mxGeometry width="50" height="50" relative="1" as="geometry">
            <mxPoint x="-1660" y="-2040" as="sourcePoint" />
            <mxPoint x="480" y="-2040" as="targetPoint" />
          </mxGeometry>
        </mxCell>
        <mxCell id="QlcaSgnAr_pf4Fz0l7gZ-44" value="" style="endArrow=classic;html=1;rounded=0;strokeWidth=10;" edge="1" parent="1">
          <mxGeometry width="50" height="50" relative="1" as="geometry">
            <mxPoint x="-1610" y="-2000" as="sourcePoint" />
            <mxPoint x="-1610" y="-2040" as="targetPoint" />
            <Array as="points">
              <mxPoint x="-1610" y="-1950" />
            </Array>
          </mxGeometry>
        </mxCell>
        <mxCell id="QlcaSgnAr_pf4Fz0l7gZ-45" value="&lt;span style=&quot;font-size: 50px;&quot;&gt;業務中台&lt;/span&gt;" style="text;html=1;align=center;verticalAlign=middle;whiteSpace=wrap;rounded=0;" vertex="1" parent="1">
          <mxGeometry x="-1660" y="-1910" width="110" height="40" as="geometry" />
        </mxCell>
        <mxCell id="QlcaSgnAr_pf4Fz0l7gZ-47" value="" style="endArrow=classic;html=1;rounded=0;strokeWidth=10;" edge="1" parent="1">
          <mxGeometry width="50" height="50" relative="1" as="geometry">
            <mxPoint x="-1605" y="-1830" as="sourcePoint" />
            <mxPoint x="-1605" y="-1680" as="targetPoint" />
            <Array as="points" />
          </mxGeometry>
        </mxCell>
        <mxCell id="QlcaSgnAr_pf4Fz0l7gZ-48" value="" style="rounded=0;whiteSpace=wrap;html=1;strokeColor=#CCFFCC;" vertex="1" parent="1">
          <mxGeometry x="-1540" y="-2020" width="1980" height="330" as="geometry" />
        </mxCell>
        <mxCell id="QlcaSgnAr_pf4Fz0l7gZ-49" value="&lt;font style=&quot;font-size: 30px;&quot;&gt;大中台(共享事務事業部))&lt;/font&gt;" style="text;html=1;align=center;verticalAlign=middle;whiteSpace=wrap;rounded=0;" vertex="1" parent="1">
          <mxGeometry x="-1530" y="-2000" width="350" height="50" as="geometry" />
        </mxCell>
        <mxCell id="QlcaSgnAr_pf4Fz0l7gZ-51" value="" style="rounded=0;whiteSpace=wrap;html=1;dashed=1;strokeColor=#66B2FF;" vertex="1" parent="1">
          <mxGeometry x="-1530" y="-1930" width="1930" height="230" as="geometry" />
        </mxCell>
        <mxCell id="QlcaSgnAr_pf4Fz0l7gZ-52" value="" style="rounded=0;whiteSpace=wrap;html=1;fillColor=#dae8fc;strokeColor=#6c8ebf;" vertex="1" parent="1">
          <mxGeometry x="-1360" y="-1910" width="280" height="80" as="geometry" />
        </mxCell>
        <mxCell id="QlcaSgnAr_pf4Fz0l7gZ-53" value="" style="rounded=0;whiteSpace=wrap;html=1;fillColor=#dae8fc;strokeColor=#6c8ebf;" vertex="1" parent="1">
          <mxGeometry x="-1360" y="-1800" width="280" height="80" as="geometry" />
        </mxCell>
        <mxCell id="QlcaSgnAr_pf4Fz0l7gZ-54" value="" style="rounded=0;whiteSpace=wrap;html=1;fillColor=#dae8fc;strokeColor=#6c8ebf;" vertex="1" parent="1">
          <mxGeometry x="-882.5" y="-1910" width="270" height="80" as="geometry" />
        </mxCell>
        <mxCell id="QlcaSgnAr_pf4Fz0l7gZ-55" value="" style="rounded=0;whiteSpace=wrap;html=1;fillColor=#dae8fc;strokeColor=#6c8ebf;" vertex="1" parent="1">
          <mxGeometry x="-882.5" y="-1800" width="270" height="80" as="geometry" />
        </mxCell>
        <mxCell id="QlcaSgnAr_pf4Fz0l7gZ-57" value="" style="rounded=0;whiteSpace=wrap;html=1;fillColor=#dae8fc;strokeColor=#6c8ebf;" vertex="1" parent="1">
          <mxGeometry x="-460" y="-1910" width="270" height="80" as="geometry" />
        </mxCell>
        <mxCell id="QlcaSgnAr_pf4Fz0l7gZ-58" value="" style="rounded=0;whiteSpace=wrap;html=1;fillColor=#dae8fc;strokeColor=#6c8ebf;" vertex="1" parent="1">
          <mxGeometry x="-460" y="-1800" width="270" height="80" as="geometry" />
        </mxCell>
        <mxCell id="QlcaSgnAr_pf4Fz0l7gZ-59" value="" style="rounded=0;whiteSpace=wrap;html=1;fillColor=#dae8fc;strokeColor=#6c8ebf;" vertex="1" parent="1">
          <mxGeometry x="50" y="-1910" width="270" height="80" as="geometry" />
        </mxCell>
        <mxCell id="QlcaSgnAr_pf4Fz0l7gZ-60" value="" style="rounded=0;whiteSpace=wrap;html=1;fillColor=#dae8fc;strokeColor=#6c8ebf;" vertex="1" parent="1">
          <mxGeometry x="50" y="-1793" width="270" height="80" as="geometry" />
        </mxCell>
        <mxCell id="QlcaSgnAr_pf4Fz0l7gZ-61" value="&lt;font style=&quot;font-size: 35px;&quot;&gt;用戶中心&lt;/font&gt;" style="text;html=1;align=center;verticalAlign=middle;whiteSpace=wrap;rounded=0;" vertex="1" parent="1">
          <mxGeometry x="-1302.5" y="-1885" width="165" height="30" as="geometry" />
        </mxCell>
        <mxCell id="QlcaSgnAr_pf4Fz0l7gZ-62" value="&lt;font style=&quot;font-size: 35px;&quot;&gt;店鋪中心&lt;/font&gt;" style="text;html=1;align=center;verticalAlign=middle;whiteSpace=wrap;rounded=0;" vertex="1" parent="1">
          <mxGeometry x="-1302.5" y="-1775" width="165" height="30" as="geometry" />
        </mxCell>
        <mxCell id="QlcaSgnAr_pf4Fz0l7gZ-63" value="&lt;font style=&quot;font-size: 35px;&quot;&gt;商品中心&lt;/font&gt;" style="text;html=1;align=center;verticalAlign=middle;whiteSpace=wrap;rounded=0;" vertex="1" parent="1">
          <mxGeometry x="-834.5" y="-1885" width="165" height="30" as="geometry" />
        </mxCell>
        <mxCell id="QlcaSgnAr_pf4Fz0l7gZ-64" value="&lt;font style=&quot;font-size: 35px;&quot;&gt;搜索中心&lt;/font&gt;" style="text;html=1;align=center;verticalAlign=middle;whiteSpace=wrap;rounded=0;" vertex="1" parent="1">
          <mxGeometry x="-834.5" y="-1775" width="165" height="30" as="geometry" />
        </mxCell>
        <mxCell id="QlcaSgnAr_pf4Fz0l7gZ-65" value="&lt;font style=&quot;font-size: 35px;&quot;&gt;交易中心&lt;/font&gt;" style="text;html=1;align=center;verticalAlign=middle;whiteSpace=wrap;rounded=0;" vertex="1" parent="1">
          <mxGeometry x="-413" y="-1885" width="165" height="30" as="geometry" />
        </mxCell>
        <mxCell id="QlcaSgnAr_pf4Fz0l7gZ-67" value="&lt;font style=&quot;font-size: 35px;&quot;&gt;數據服務中心&lt;/font&gt;" style="text;html=1;align=center;verticalAlign=middle;whiteSpace=wrap;rounded=0;" vertex="1" parent="1">
          <mxGeometry x="-430" y="-1775" width="223" height="30" as="geometry" />
        </mxCell>
        <mxCell id="QlcaSgnAr_pf4Fz0l7gZ-68" value="&lt;font style=&quot;font-size: 35px;&quot;&gt;評價中心&lt;/font&gt;" style="text;html=1;align=center;verticalAlign=middle;whiteSpace=wrap;rounded=0;" vertex="1" parent="1">
          <mxGeometry x="102.5" y="-1885" width="165" height="30" as="geometry" />
        </mxCell>
        <mxCell id="QlcaSgnAr_pf4Fz0l7gZ-69" value="&lt;font style=&quot;font-size: 35px;&quot;&gt;營銷中心&lt;/font&gt;" style="text;html=1;align=center;verticalAlign=middle;whiteSpace=wrap;rounded=0;" vertex="1" parent="1">
          <mxGeometry x="100" y="-1768" width="165" height="30" as="geometry" />
        </mxCell>
        <mxCell id="QlcaSgnAr_pf4Fz0l7gZ-70" value="" style="endArrow=classic;html=1;rounded=0;strokeWidth=30;strokeColor=#00FFFF;" edge="1" parent="1">
          <mxGeometry width="50" height="50" relative="1" as="geometry">
            <mxPoint x="-730" y="-1580" as="sourcePoint" />
            <mxPoint x="-730" y="-1680" as="targetPoint" />
          </mxGeometry>
        </mxCell>
        <mxCell id="QlcaSgnAr_pf4Fz0l7gZ-76" value="&lt;font style=&quot;font-size: 20px;&quot;&gt;支撐&lt;/font&gt;" style="edgeLabel;html=1;align=center;verticalAlign=middle;resizable=0;points=[];labelBackgroundColor=#33FFFF;" vertex="1" connectable="0" parent="QlcaSgnAr_pf4Fz0l7gZ-70">
          <mxGeometry relative="1" as="geometry">
            <mxPoint x="1" y="10" as="offset" />
          </mxGeometry>
        </mxCell>
        <mxCell id="QlcaSgnAr_pf4Fz0l7gZ-78" value="" style="endArrow=none;dashed=1;html=1;rounded=0;" edge="1" parent="1">
          <mxGeometry width="50" height="50" relative="1" as="geometry">
            <mxPoint x="-1670" y="-1680" as="sourcePoint" />
            <mxPoint x="480" y="-1680" as="targetPoint" />
          </mxGeometry>
        </mxCell>
        <mxCell id="QlcaSgnAr_pf4Fz0l7gZ-79" value="" style="endArrow=classic;html=1;rounded=0;strokeWidth=10;" edge="1" parent="1">
          <mxGeometry width="50" height="50" relative="1" as="geometry">
            <mxPoint x="-1610" y="-1650" as="sourcePoint" />
            <mxPoint x="-1610" y="-1680" as="targetPoint" />
            <Array as="points">
              <mxPoint x="-1610" y="-1540" />
            </Array>
          </mxGeometry>
        </mxCell>
        <mxCell id="QlcaSgnAr_pf4Fz0l7gZ-80" value="&lt;span style=&quot;font-size: 50px;&quot;&gt;技術中台&lt;/span&gt;" style="text;html=1;align=center;verticalAlign=middle;whiteSpace=wrap;rounded=0;" vertex="1" parent="1">
          <mxGeometry x="-1660" y="-1510" width="110" height="40" as="geometry" />
        </mxCell>
        <mxCell id="QlcaSgnAr_pf4Fz0l7gZ-81" value="" style="endArrow=classic;html=1;rounded=0;strokeWidth=10;" edge="1" parent="1">
          <mxGeometry width="50" height="50" relative="1" as="geometry">
            <mxPoint x="-1610" y="-1420" as="sourcePoint" />
            <mxPoint x="-1610" y="-1170" as="targetPoint" />
            <Array as="points" />
          </mxGeometry>
        </mxCell>
        <mxCell id="QlcaSgnAr_pf4Fz0l7gZ-82" value="" style="endArrow=classic;html=1;rounded=0;strokeWidth=30;strokeColor=#00FFFF;" edge="1" parent="1">
          <mxGeometry width="50" height="50" relative="1" as="geometry">
            <mxPoint x="-738.61" y="-2010" as="sourcePoint" />
            <mxPoint x="-738.61" y="-2110" as="targetPoint" />
          </mxGeometry>
        </mxCell>
        <mxCell id="QlcaSgnAr_pf4Fz0l7gZ-83" value="&lt;font style=&quot;font-size: 20px;&quot;&gt;支撐&lt;/font&gt;" style="edgeLabel;html=1;align=center;verticalAlign=middle;resizable=0;points=[];labelBackgroundColor=#33FFFF;" vertex="1" connectable="0" parent="QlcaSgnAr_pf4Fz0l7gZ-82">
          <mxGeometry relative="1" as="geometry">
            <mxPoint x="1" y="10" as="offset" />
          </mxGeometry>
        </mxCell>
        <mxCell id="QlcaSgnAr_pf4Fz0l7gZ-84" value="" style="rounded=0;whiteSpace=wrap;html=1;strokeColor=#35FF93;" vertex="1" parent="1">
          <mxGeometry x="-1550" y="-1580" width="1980" height="420" as="geometry" />
        </mxCell>
        <mxCell id="QlcaSgnAr_pf4Fz0l7gZ-86" value="&lt;span style=&quot;font-size: 30px;&quot;&gt;阿里雲平臺&lt;/span&gt;" style="text;html=1;align=center;verticalAlign=middle;whiteSpace=wrap;rounded=0;" vertex="1" parent="1">
          <mxGeometry x="-1540" y="-1560" width="40" height="390" as="geometry" />
        </mxCell>
        <mxCell id="QlcaSgnAr_pf4Fz0l7gZ-87" value="" style="rounded=0;whiteSpace=wrap;html=1;fillColor=#dae8fc;strokeColor=#6c8ebf;" vertex="1" parent="1">
          <mxGeometry x="-1490" y="-1570" width="100" height="400" as="geometry" />
        </mxCell>
        <mxCell id="QlcaSgnAr_pf4Fz0l7gZ-88" value="" style="rounded=0;whiteSpace=wrap;html=1;fillColor=#dae8fc;strokeColor=#6c8ebf;" vertex="1" parent="1">
          <mxGeometry x="320" y="-1570" width="100" height="400" as="geometry" />
        </mxCell>
        <mxCell id="QlcaSgnAr_pf4Fz0l7gZ-89" value="&lt;font style=&quot;font-size: 35px;&quot;&gt;(大禹)集群部署&lt;/font&gt;" style="text;html=1;align=center;verticalAlign=middle;whiteSpace=wrap;rounded=0;" vertex="1" parent="1">
          <mxGeometry x="-1471.25" y="-1540" width="62.5" height="350" as="geometry" />
        </mxCell>
        <mxCell id="QlcaSgnAr_pf4Fz0l7gZ-90" value="&lt;font style=&quot;font-size: 35px;&quot;&gt;(大禹)集群部署&lt;/font&gt;" style="text;html=1;align=center;verticalAlign=middle;whiteSpace=wrap;rounded=0;" vertex="1" parent="1">
          <mxGeometry x="-1471.25" y="-1540" width="62.5" height="350" as="geometry" />
        </mxCell>
        <mxCell id="QlcaSgnAr_pf4Fz0l7gZ-91" value="&lt;font style=&quot;font-size: 35px;&quot;&gt;(神農)集群監控&lt;/font&gt;" style="text;html=1;align=center;verticalAlign=middle;whiteSpace=wrap;rounded=0;" vertex="1" parent="1">
          <mxGeometry x="338.75" y="-1560" width="62.5" height="350" as="geometry" />
        </mxCell>
        <mxCell id="QlcaSgnAr_pf4Fz0l7gZ-93" value="" style="rounded=0;whiteSpace=wrap;html=1;fillColor=#dae8fc;strokeColor=#6c8ebf;" vertex="1" parent="1">
          <mxGeometry x="-1360" y="-1569" width="1630" height="59" as="geometry" />
        </mxCell>
        <mxCell id="QlcaSgnAr_pf4Fz0l7gZ-94" value="&lt;font style=&quot;font-size: 35px;&quot;&gt;分布室應用服務平臺 EDAS&lt;/font&gt;" style="text;html=1;align=center;verticalAlign=middle;whiteSpace=wrap;rounded=0;" vertex="1" parent="1">
          <mxGeometry x="-1133" y="-1560" width="983" height="50" as="geometry" />
        </mxCell>
        <mxCell id="QlcaSgnAr_pf4Fz0l7gZ-95" value="" style="rounded=0;whiteSpace=wrap;html=1;fillColor=#dae8fc;strokeColor=#6c8ebf;" vertex="1" parent="1">
          <mxGeometry x="-1360" y="-1490" width="240" height="80" as="geometry" />
        </mxCell>
        <mxCell id="QlcaSgnAr_pf4Fz0l7gZ-96" value="" style="rounded=0;whiteSpace=wrap;html=1;fillColor=#dae8fc;strokeColor=#6c8ebf;" vertex="1" parent="1">
          <mxGeometry x="-1100" y="-1490" width="250" height="80" as="geometry" />
        </mxCell>
        <mxCell id="QlcaSgnAr_pf4Fz0l7gZ-97" value="" style="rounded=0;whiteSpace=wrap;html=1;fillColor=#dae8fc;strokeColor=#6c8ebf;" vertex="1" parent="1">
          <mxGeometry x="-827" y="-1490" width="237" height="80" as="geometry" />
        </mxCell>
        <mxCell id="QlcaSgnAr_pf4Fz0l7gZ-98" value="" style="rounded=0;whiteSpace=wrap;html=1;fillColor=#dae8fc;strokeColor=#6c8ebf;" vertex="1" parent="1">
          <mxGeometry x="-560" y="-1490" width="250" height="80" as="geometry" />
        </mxCell>
        <mxCell id="QlcaSgnAr_pf4Fz0l7gZ-99" value="" style="rounded=0;whiteSpace=wrap;html=1;fillColor=#dae8fc;strokeColor=#6c8ebf;" vertex="1" parent="1">
          <mxGeometry x="-280" y="-1490" width="230" height="80" as="geometry" />
        </mxCell>
        <mxCell id="QlcaSgnAr_pf4Fz0l7gZ-100" value="" style="rounded=0;whiteSpace=wrap;html=1;fillColor=#dae8fc;strokeColor=#6c8ebf;" vertex="1" parent="1">
          <mxGeometry x="-20" y="-1490" width="290" height="80" as="geometry" />
        </mxCell>
        <mxCell id="QlcaSgnAr_pf4Fz0l7gZ-101" value="&lt;font style=&quot;font-size: 27px;&quot;&gt;彈性計算服務ECS&lt;/font&gt;" style="text;html=1;align=center;verticalAlign=middle;whiteSpace=wrap;rounded=0;" vertex="1" parent="1">
          <mxGeometry x="-1355" y="-1465" width="230" height="35" as="geometry" />
        </mxCell>
        <mxCell id="QlcaSgnAr_pf4Fz0l7gZ-102" value="&lt;font style=&quot;font-size: 27px;&quot;&gt;關係型數據庫服務&lt;/font&gt;&lt;div&gt;&lt;font style=&quot;font-size: 27px;&quot;&gt;RDS/DRDS&lt;/font&gt;&lt;/div&gt;" style="text;html=1;align=center;verticalAlign=middle;whiteSpace=wrap;rounded=0;" vertex="1" parent="1">
          <mxGeometry x="-1090" y="-1467.5" width="230" height="35" as="geometry" />
        </mxCell>
        <mxCell id="QlcaSgnAr_pf4Fz0l7gZ-103" value="&lt;span style=&quot;font-size: 27px;&quot;&gt;開放存儲服務OSS&lt;/span&gt;" style="text;html=1;align=center;verticalAlign=middle;whiteSpace=wrap;rounded=0;" vertex="1" parent="1">
          <mxGeometry x="-823.5" y="-1470" width="230" height="35" as="geometry" />
        </mxCell>
        <mxCell id="QlcaSgnAr_pf4Fz0l7gZ-104" value="&lt;span style=&quot;font-size: 27px;&quot;&gt;消息服務MQ&lt;/span&gt;" style="text;html=1;align=center;verticalAlign=middle;whiteSpace=wrap;rounded=0;" vertex="1" parent="1">
          <mxGeometry x="-550" y="-1470" width="230" height="35" as="geometry" />
        </mxCell>
        <mxCell id="QlcaSgnAr_pf4Fz0l7gZ-105" value="&lt;font style=&quot;font-size: 27px;&quot;&gt;開放緩存服務OCS&lt;/font&gt;" style="text;html=1;align=center;verticalAlign=middle;whiteSpace=wrap;rounded=0;" vertex="1" parent="1">
          <mxGeometry x="-277.5" y="-1465" width="230" height="35" as="geometry" />
        </mxCell>
        <mxCell id="QlcaSgnAr_pf4Fz0l7gZ-106" value="&lt;font style=&quot;font-size: 27px;&quot;&gt;開放數據處理服務ODPS&lt;/font&gt;" style="text;html=1;align=center;verticalAlign=middle;whiteSpace=wrap;rounded=0;" vertex="1" parent="1">
          <mxGeometry y="-1470" width="230" height="35" as="geometry" />
        </mxCell>
        <mxCell id="QlcaSgnAr_pf4Fz0l7gZ-107" value="" style="rounded=0;whiteSpace=wrap;html=1;fillColor=#dae8fc;strokeColor=#6c8ebf;" vertex="1" parent="1">
          <mxGeometry x="-1360" y="-1390" width="770" height="80" as="geometry" />
        </mxCell>
        <mxCell id="QlcaSgnAr_pf4Fz0l7gZ-108" value="" style="rounded=0;whiteSpace=wrap;html=1;fillColor=#dae8fc;strokeColor=#6c8ebf;" vertex="1" parent="1">
          <mxGeometry x="-560" y="-1390" width="830" height="80" as="geometry" />
        </mxCell>
        <mxCell id="QlcaSgnAr_pf4Fz0l7gZ-109" value="&lt;span style=&quot;font-size: 27px;&quot;&gt;分布式文件系統(盤古)&lt;/span&gt;" style="text;html=1;align=center;verticalAlign=middle;whiteSpace=wrap;rounded=0;" vertex="1" parent="1">
          <mxGeometry x="-1302.5" y="-1367.5" width="652.5" height="35" as="geometry" />
        </mxCell>
        <mxCell id="QlcaSgnAr_pf4Fz0l7gZ-110" value="&lt;font style=&quot;font-size: 27px;&quot;&gt;任務調度系統(伏羲)&lt;/font&gt;" style="text;html=1;align=center;verticalAlign=middle;whiteSpace=wrap;rounded=0;" vertex="1" parent="1">
          <mxGeometry x="-517.5" y="-1367.5" width="652.5" height="35" as="geometry" />
        </mxCell>
        <mxCell id="QlcaSgnAr_pf4Fz0l7gZ-111" value="" style="rounded=0;whiteSpace=wrap;html=1;fillColor=#dae8fc;strokeColor=#6c8ebf;" vertex="1" parent="1">
          <mxGeometry x="-1355" y="-1270" width="385" height="80" as="geometry" />
        </mxCell>
        <mxCell id="QlcaSgnAr_pf4Fz0l7gZ-112" value="" style="rounded=0;whiteSpace=wrap;html=1;fillColor=#dae8fc;strokeColor=#6c8ebf;" vertex="1" parent="1">
          <mxGeometry x="-950" y="-1270" width="360" height="80" as="geometry" />
        </mxCell>
        <mxCell id="QlcaSgnAr_pf4Fz0l7gZ-113" value="" style="rounded=0;whiteSpace=wrap;html=1;fillColor=#dae8fc;strokeColor=#6c8ebf;" vertex="1" parent="1">
          <mxGeometry x="-560" y="-1270" width="400" height="80" as="geometry" />
        </mxCell>
        <mxCell id="QlcaSgnAr_pf4Fz0l7gZ-114" value="" style="rounded=0;whiteSpace=wrap;html=1;fillColor=#dae8fc;strokeColor=#6c8ebf;" vertex="1" parent="1">
          <mxGeometry x="-130" y="-1270" width="400" height="80" as="geometry" />
        </mxCell>
        <mxCell id="QlcaSgnAr_pf4Fz0l7gZ-115" value="&lt;span style=&quot;font-size: 27px;&quot;&gt;遠程調度適用(夸父)&lt;/span&gt;" style="text;html=1;align=center;verticalAlign=middle;whiteSpace=wrap;rounded=0;" vertex="1" parent="1">
          <mxGeometry x="-1330" y="-1247.5" width="330" height="35" as="geometry" />
        </mxCell>
        <mxCell id="QlcaSgnAr_pf4Fz0l7gZ-116" value="&lt;span style=&quot;font-size: 27px;&quot;&gt;安全管理(鍾馗&lt;/span&gt;&lt;span style=&quot;color: rgba(0, 0, 0, 0); font-family: monospace; font-size: 0px; text-align: start; text-wrap-mode: nowrap;&quot;&gt;%3CmxGraphModel%3E%3Croot%3E%3CmxCell%20id%3D%220%22%2F%3E%3CmxCell%20id%3D%221%22%20parent%3D%220%22%2F%3E%3CmxCell%20id%3D%222%22%20value%3D%22%26lt%3Bspan%20style%3D%26quot%3Bfont-size%3A%2027px%3B%26quot%3B%26gt%3B%E9%81%A0%E7%A8%8B%E8%AA%BF%E5%BA%A6%E9%81%A9%E7%94%A8(%E5%A4%B8%E7%88%B6)%26lt%3B%2Fspan%26gt%3B%22%20style%3D%22text%3Bhtml%3D1%3Balign%3Dcenter%3BverticalAlign%3Dmiddle%3BwhiteSpace%3Dwrap%3Brounded%3D0%3B%22%20vertex%3D%221%22%20parent%3D%221%22%3E%3CmxGeometry%20x%3D%22-1330%22%20y%3D%22-1247.5%22%20width%3D%22330%22%20height%3D%2235%22%20as%3D%22geometry%22%2F%3E%3C%2FmxCell%3E%3C%2Froot%3E%3C%2FmxGraphModel%3E&lt;/span&gt;&lt;span style=&quot;font-size: 27px;&quot;&gt;)&lt;/span&gt;" style="text;html=1;align=center;verticalAlign=middle;whiteSpace=wrap;rounded=0;" vertex="1" parent="1">
          <mxGeometry x="-935" y="-1245" width="330" height="35" as="geometry" />
        </mxCell>
        <mxCell id="QlcaSgnAr_pf4Fz0l7gZ-117" value="&lt;span style=&quot;font-size: 27px;&quot;&gt;分布協同服務(女媧)&lt;/span&gt;" style="text;html=1;align=center;verticalAlign=middle;whiteSpace=wrap;rounded=0;" vertex="1" parent="1">
          <mxGeometry x="-525" y="-1245" width="330" height="35" as="geometry" />
        </mxCell>
        <mxCell id="QlcaSgnAr_pf4Fz0l7gZ-118" value="&lt;span style=&quot;font-size: 27px;&quot;&gt;資源管理(伏羲)&lt;/span&gt;" style="text;html=1;align=center;verticalAlign=middle;whiteSpace=wrap;rounded=0;" vertex="1" parent="1">
          <mxGeometry x="-100" y="-1245" width="330" height="35" as="geometry" />
        </mxCell>
        <mxCell id="QlcaSgnAr_pf4Fz0l7gZ-119" value="" style="rounded=0;whiteSpace=wrap;html=1;strokeColor=#33FFFF;gradientColor=none;fillColor=#00FFFF;" vertex="1" parent="1">
          <mxGeometry x="490" y="-2280" width="310" height="1130" as="geometry" />
        </mxCell>
        <mxCell id="QlcaSgnAr_pf4Fz0l7gZ-120" value="" style="rounded=0;whiteSpace=wrap;html=1;fillColor=#dae8fc;strokeColor=#6c8ebf;" vertex="1" parent="1">
          <mxGeometry x="510" y="-2235" width="270" height="80" as="geometry" />
        </mxCell>
        <mxCell id="QlcaSgnAr_pf4Fz0l7gZ-121" value="" style="rounded=0;whiteSpace=wrap;html=1;fillColor=#dae8fc;strokeColor=#6c8ebf;" vertex="1" parent="1">
          <mxGeometry x="510" y="-2110" width="270" height="75" as="geometry" />
        </mxCell>
        <mxCell id="QlcaSgnAr_pf4Fz0l7gZ-122" value="" style="rounded=0;whiteSpace=wrap;html=1;fillColor=#dae8fc;strokeColor=#6c8ebf;" vertex="1" parent="1">
          <mxGeometry x="510" y="-1970" width="270" height="80" as="geometry" />
        </mxCell>
        <mxCell id="QlcaSgnAr_pf4Fz0l7gZ-123" value="" style="rounded=0;whiteSpace=wrap;html=1;fillColor=#dae8fc;strokeColor=#6c8ebf;" vertex="1" parent="1">
          <mxGeometry x="510" y="-1660" width="270" height="80" as="geometry" />
        </mxCell>
        <mxCell id="QlcaSgnAr_pf4Fz0l7gZ-124" value="" style="rounded=0;whiteSpace=wrap;html=1;fillColor=#dae8fc;strokeColor=#6c8ebf;" vertex="1" parent="1">
          <mxGeometry x="510" y="-1492.5" width="270" height="80" as="geometry" />
        </mxCell>
        <mxCell id="QlcaSgnAr_pf4Fz0l7gZ-125" value="" style="rounded=0;whiteSpace=wrap;html=1;fillColor=#dae8fc;strokeColor=#6c8ebf;" vertex="1" parent="1">
          <mxGeometry x="510" y="-1332.5" width="270" height="80" as="geometry" />
        </mxCell>
        <mxCell id="QlcaSgnAr_pf4Fz0l7gZ-126" value="" style="rounded=0;whiteSpace=wrap;html=1;fillColor=#dae8fc;strokeColor=#6c8ebf;" vertex="1" parent="1">
          <mxGeometry x="510" y="-1810" width="270" height="80" as="geometry" />
        </mxCell>
        <mxCell id="QlcaSgnAr_pf4Fz0l7gZ-127" value="&lt;font style=&quot;font-size: 30px;&quot;&gt;監控系統&lt;/font&gt;" style="text;html=1;align=center;verticalAlign=middle;whiteSpace=wrap;rounded=0;" vertex="1" parent="1">
          <mxGeometry x="540" y="-2210" width="210" height="30" as="geometry" />
        </mxCell>
        <mxCell id="QlcaSgnAr_pf4Fz0l7gZ-128" value="&lt;font style=&quot;font-size: 30px;&quot;&gt;故障系統&lt;/font&gt;&lt;span style=&quot;color: rgba(0, 0, 0, 0); font-family: monospace; font-size: 0px; text-align: start; text-wrap-mode: nowrap;&quot;&gt;%3CmxGraphModel%3E%3Croot%3E%3CmxCell%20id%3D%220%22%2F%3E%3CmxCell%20id%3D%221%22%20parent%3D%220%22%2F%3E%3CmxCell%20id%3D%222%22%20value%3D%22%26lt%3Bfont%20style%3D%26quot%3Bfont-size%3A%2030px%3B%26quot%3B%26gt%3B%E7%9B%A3%E6%8E%A7%E7%B3%BB%E7%B5%B1%26lt%3B%2Ffont%26gt%3B%22%20style%3D%22text%3Bhtml%3D1%3Balign%3Dcenter%3BverticalAlign%3Dmiddle%3BwhiteSpace%3Dwrap%3Brounded%3D0%3B%22%20vertex%3D%221%22%20parent%3D%221%22%3E%3CmxGeometry%20x%3D%22540%22%20y%3D%22-2210%22%20width%3D%22210%22%20height%3D%2230%22%20as%3D%22geometry%22%2F%3E%3C%2FmxCell%3E%3C%2Froot%3E%3C%2FmxGraphModel%3E&lt;/span&gt;" style="text;html=1;align=center;verticalAlign=middle;whiteSpace=wrap;rounded=0;" vertex="1" parent="1">
          <mxGeometry x="540" y="-2087.5" width="210" height="30" as="geometry" />
        </mxCell>
        <mxCell id="QlcaSgnAr_pf4Fz0l7gZ-129" value="&lt;font style=&quot;font-size: 30px;&quot;&gt;系統升級&lt;/font&gt;" style="text;html=1;align=center;verticalAlign=middle;whiteSpace=wrap;rounded=0;" vertex="1" parent="1">
          <mxGeometry x="540" y="-1940" width="210" height="30" as="geometry" />
        </mxCell>
        <mxCell id="QlcaSgnAr_pf4Fz0l7gZ-130" value="&lt;font style=&quot;font-size: 30px;&quot;&gt;應用發布&lt;/font&gt;" style="text;html=1;align=center;verticalAlign=middle;whiteSpace=wrap;rounded=0;" vertex="1" parent="1">
          <mxGeometry x="540" y="-1785" width="210" height="30" as="geometry" />
        </mxCell>
        <mxCell id="QlcaSgnAr_pf4Fz0l7gZ-131" value="&lt;font style=&quot;font-size: 30px;&quot;&gt;安全防控&lt;/font&gt;" style="text;html=1;align=center;verticalAlign=middle;whiteSpace=wrap;rounded=0;" vertex="1" parent="1">
          <mxGeometry x="540" y="-1635" width="210" height="30" as="geometry" />
        </mxCell>
        <mxCell id="QlcaSgnAr_pf4Fz0l7gZ-132" value="&lt;font style=&quot;font-size: 30px;&quot;&gt;業務監控&lt;/font&gt;" style="text;html=1;align=center;verticalAlign=middle;whiteSpace=wrap;rounded=0;" vertex="1" parent="1">
          <mxGeometry x="540" y="-1467.5" width="210" height="30" as="geometry" />
        </mxCell>
        <mxCell id="QlcaSgnAr_pf4Fz0l7gZ-133" value="&lt;font style=&quot;font-size: 30px;&quot;&gt;運維保障部&lt;/font&gt;" style="text;html=1;align=center;verticalAlign=middle;whiteSpace=wrap;rounded=0;" vertex="1" parent="1">
          <mxGeometry x="540" y="-1310" width="210" height="30" as="geometry" />
        </mxCell>
      </root>
    </mxGraphModel>
  </diagram>
</mxfile>
